<?xml version="1.0" ?>
<!-- Uploaded to: SVG Repo, www.svgrepo.com, Generator: SVG Repo Mixer Tools -->
<svg width="800px" height="800px" viewBox="0 0 24 24" version="1.1" xml:space="preserve" xmlns="http://www.w3.org/2000/svg" xmlns:xlink="http://www.w3.org/1999/xlink">
<style type="text/css">
	.st0{opacity:0.2;fill:none;stroke:#000000;stroke-width:5.000000e-02;stroke-miterlimit:10;}
</style>
<g id="Layer_1"/>
<g id="Layer_2">
<g>
<path d="M6,7c0.6,0,1-0.4,1-1V5c0-0.6-0.4-1-1-1S5,4.4,5,5v1C5,6.6,5.4,7,6,7z"/>
<path d="M11,7c0.6,0,1-0.4,1-1V4c0-0.6-0.4-1-1-1s-1,0.4-1,1v2C10,6.6,10.4,7,11,7z"/>
<path d="M16,7c0.6,0,1-0.4,1-1V5c0-0.6-0.4-1-1-1s-1,0.4-1,1v1C15,6.6,15.4,7,16,7z"/>
<path d="M18.5,10h-0.7c-0.4-1.2-1.5-2-2.8-2H7c-1.7,0-3,1.3-3,3v3.2c0,1.5,0.6,2.9,1.5,3.9C5.2,18.3,5,18.6,5,19c0,0.6,0.4,1,1,1    h3.8h2.4H16c0.6,0,1-0.4,1-1c0-0.4-0.2-0.7-0.5-0.9c0.8-0.8,1.3-1.9,1.5-3.1h0.6c1.4,0,2.5-1.1,2.5-2.5S19.9,10,18.5,10z M16,14    v0.2c0,2.1-1.7,3.8-3.8,3.8H9.8C7.7,18,6,16.3,6,14.2V11c0-0.6,0.4-1,1-1h8c0.6,0,1,0.4,1,1V14z M18.5,13H18v-1h0.5    c0.3,0,0.5,0.2,0.5,0.5S18.8,13,18.5,13z"/>
</g>
</g>
</svg>